<?xml version="1.0" encoding="UTF-8"?>
<!-- Created with Inkscape (http://www.inkscape.org/) -->
<svg width="300" height="300" version="1.1" viewBox="0 0 300 300" xmlns="http://www.w3.org/2000/svg">
 <text transform="matrix(11.13 0 0 10.98 -97.6 -100.7)" fill="#000000" font-family="Gayathri" font-size="40px" font-weight="bold" style="font-variant-caps:normal;font-variant-east-asian:normal;font-variant-ligatures:normal;font-variant-numeric:normal;line-height:1.25;shape-inside:url(#rect12441);white-space:pre" xml:space="preserve"/>
 <g fill="#fff" stroke="#0f0" stroke-width=".7109">
  <path d="m18.17 292.9c-5.037-1.412-9.153-3.751-11-6.251l-1.485-2.007v-200.3l2.404-2.48c6.896-7.115 22.71-8.62 33.95-3.232 7.795 3.735 6.979-8.066 7.22 104.4 0.1462 68.15-0.02189 99.26-0.546 101.1-1.603 5.531-9.115 9.135-19.93 9.558-4.614 0.1808-7.977-0.0784-10.62-0.8184z"/>
  <path d="m21.65 54.88c-6.397-1.809-11.57-6.228-14.31-12.23-2.372-5.187-2.246-12.9 0.2906-17.77 2.209-4.243 6.123-8.12 10.5-10.4 4.572-2.381 13.8-2.378 18.65 0.0071 4.31 2.12 8.484 6.303 10.56 10.58 2.438 5.029 2.338 13.41-0.2194 18.34-2.203 4.25-6.644 8.47-10.89 10.35-3.999 1.769-10.52 2.271-14.58 1.123z"/>
  <path d="m100.6 292.9c-5.037-1.412-9.153-3.751-11-6.251l-1.485-2.007-0.1851-98.77c-0.2036-108.6-0.4737-101.8 4.197-105.3 4.556-3.391 8.772-4.454 17.67-4.454 9.165 0 13.78 1.222 18.12 4.798 3.024 2.493 3.911 5.476 3.916 13.18l4e-3 5.891 5.622-4.576c7.064-5.75 13.7-9.707 21.66-12.92 30.02-12.11 67.65-8.63 94.64 8.739 23.26 14.97 38.03 39.03 41.56 67.69 0.4605 3.743 0.7412 28.6 0.7412 65.65 0 66.67 0.384 61.8-5.156 65.4-3.473 2.252-11.02 4.044-17.04 4.044-8.051 0-17.17-3.409-19.84-7.417-0.8047-1.209-1.049-12.71-1.378-64.74-0.3937-62.38-0.422-63.37-2.005-70.38-5.708-25.28-19.78-43.39-38.63-49.72-9.377-3.148-23.31-3.589-32.83-1.041-23.39 6.263-41.01 28.98-46.21 59.59-0.9796 5.763-1.14 14.72-1.143 63.98-3e-3 36.88-0.2632 58.21-0.7317 59.9-1.531 5.514-9.052 9.127-19.88 9.551-4.614 0.1808-7.977-0.0784-10.62-0.8184z"/>
 </g>
</svg>
